# Wavefront OBJ file made by Mineways version 11.07, http://mineways.com
# World: Unity
# Terrain file name: C:\Users\chris\Downloads\mineways\terrainExt.png
# Color scheme: Standard
# Fri Jul 12 14:11:15 2024

# Selection location min to max: -57, -60, 35 to -54, 319, 38
#   Non-empty selection location min to max: -57, -60, 35 to -54, -57, 38

# Set render type: Wavefront OBJ absolute indices
# Units for the model vertex data itself: meters

# 448 vertices, 209 faces (418 triangles), 0 blocks, 56 billboards/bits
# block dimensions: X=5 by Y=5 (height) by Z=5 blocks
# Elevation shading: no
# Lighting: no
# Transparent water: no
# Map grid: no
# File type: Export individual textures to directory tex
# Texture output RGB: YES
# Texture output A: YES
# Texture output RGBA: YES
# Export separate types: YES
# Export individual blocks: no
#   Material per family: YES
#   Split by block type: YES
# Make groups objects: no
# Custom material: YES
# Export lesser blocks: YES
# Fatten lesser blocks: no
# Simplify mesh: no
# Double all billboard faces: no
# Create composite overlay faces: no
# Center model: YES
# Use biomes: no
# Create block faces at the borders: YES
# Tree leaves solid: no
# Rotate model 0.000000 degrees
# Make Z the up direction instead of Y: no
# Scale model by making each block 4000 mm high
# Data operation options:
#   Fill air bubbles: no; Seal off entrances: no; Fill in isolated tunnels in base of model: no
#   Connect parts sharing an edge: no; Connect corner tips: no; Weld all shared edges: no
#   Delete floating objects: trees and parts smaller than 16 blocks: no
#   Hollow out bottom of model, making the walls 1000 mm thick: no; Superhollow: no
# Melt snow blocks: no
#   Debug: show separate parts as colors: no
#   Debug: show weld blocks in bright colors: no

# Full world path: C:\Users\chris\AppData\Roaming\.minecraft\saves\Unity
# Full terrainExt.png path: C:\Users\chris\Downloads\mineways\terrainExt.png
# Full current path: C:\Users\chris\Downloads\mineways

# COMMON_MC_OBJ_START
# version: 1
# exporter: mineways
# world_name: Unity
# world_path: C:\Users\chris\AppData\Roaming\.minecraft\saves\Unity
# export_bounds_min: (-57, -60, 35)
# export_bounds_max: (-54, 319, 38)
# export_offset: (55.000000, 60.000000, -37.000000)
# block_scale: 4
# block_origin_offset: (0.000000, 0.000000, 0.000000)
# z_up: false
# texture_type: INDIVIDUAL_TILES
# has_split_blocks: true
# COMMON_MC_OBJ_END

mtllib Stairs_Test.mtl

o Unity__-57_-60_35_to_-54_319_38
vn -1 0 0
vn 0 -1 0
vn 0 0 -1
vn 1 0 0
vn 0 1 0
vn 0 0 1
vn -0.707107 0 -0.707107
vn -0.707107 0 0.707107
vn 0.707107 0 -0.707107
vn 0.707107 0 0.707107
vn -0.707107 -0.707107 0
vn 0 -0.707107 -0.707107
vn 0.707107 -0.707107 0
vn 0 -0.707107 0.707107
vn -0.707107 0.707107 0
vn 0 0.707107 -0.707107
vn 0.707107 0.707107 0
vn 0 0.707107 0.707107
vn -0.92388 0 -0.382683
vn -0.92388 0 0.382683
vn 0.92388 0 -0.382683
vn 0.92388 0 0.382683
vn -0.382683 0 -0.92388
vn -0.382683 0 0.92388
vn 0.382683 0 -0.92388
vn 0.382683 0 0.92388
vn -0.397273 0.9177 0
vn 0.397273 -0.9177 0
vn 0.397273 0.9177 0
vn -0.397273 -0.9177 0
vn 0 0.9177 -0.397273
vn 0 -0.9177 0.397273
vn 0 0.9177 0.397273
vn 0 -0.9177 -0.397273
vn -0.440932 0.897541 0
vn 0.440932 -0.897541 0
vn 0.440932 0.897541 0
vn -0.440932 -0.897541 0
vn 0 0.897541 -0.440932
vn 0 -0.897541 0.440932
vn 0 0.897541 0.440932
vn 0 -0.897541 -0.440932
vt 0.000000000 0.000000000
vt 0.500000000 0.000000000
vt 1.000000000 0.000000000
vt 0.000000000 0.500000000
vt 0.500000000 0.500000000
vt 1.000000000 0.500000000
vt 0.000000000 1.000000000
vt 0.500000000 1.000000000
vt 1.000000000 1.000000000
v -8 0 -8
v -8 0 -4
v -8 2 -8
v -8 2 -4
v -4 0 -8
v -4 0 -4
v -4 2 -8
v -4 2 -4
v -8 2 -6
v -8 2 -4
v -8 4 -6
v -8 4 -4
v -4 2 -6
v -4 2 -4
v -4 4 -6
v -4 4 -4
v -8 2 -4
v -8 2 0
v -8 4 -4
v -8 4 0
v -4 2 -4
v -4 2 0
v -4 4 -4
v -4 4 0
v -8 0 -4
v -8 0 -2
v -8 2 -4
v -8 2 -2
v -4 0 -4
v -4 0 -2
v -4 2 -4
v -4 2 -2
v -8 4 -4
v -8 4 0
v -8 6 -4
v -8 6 0
v -4 4 -4
v -4 4 0
v -4 6 -4
v -4 6 0
v -8 6 -2
v -8 6 0
v -8 8 -2
v -8 8 0
v -4 6 -2
v -4 6 0
v -4 8 -2
v -4 8 0
v -8 6 0
v -8 6 4
v -8 8 0
v -8 8 4
v -4 6 0
v -4 6 4
v -4 8 0
v -4 8 4
v -8 4 0
v -8 4 2
v -8 6 0
v -8 6 2
v -4 4 0
v -4 4 2
v -4 6 0
v -4 6 2
v -8 8 0
v -8 8 4
v -8 10 0
v -8 10 4
v -4 8 0
v -4 8 4
v -4 10 0
v -4 10 4
v -8 10 2
v -8 10 4
v -8 12 2
v -8 12 4
v -4 10 2
v -4 10 4
v -4 12 2
v -4 12 4
v -8 10 4
v -8 10 8
v -8 12 4
v -8 12 8
v -4 10 4
v -4 10 8
v -4 12 4
v -4 12 8
v -8 8 4
v -8 8 6
v -8 10 4
v -8 10 6
v -4 8 4
v -4 8 6
v -4 10 4
v -4 10 6
v -8 12 4
v -8 12 8
v -8 14 4
v -8 14 8
v -4 12 4
v -4 12 8
v -4 14 4
v -4 14 8
v -8 14 6
v -8 14 8
v -8 16 6
v -8 16 8
v -4 14 6
v -4 14 8
v -4 16 6
v -4 16 8
v -4 0 -8
v -4 0 -4
v -4 2 -8
v -4 2 -4
v 0 0 -8
v 0 0 -4
v 0 2 -8
v 0 2 -4
v -4 2 -6
v -4 2 -4
v -4 4 -6
v -4 4 -4
v 0 2 -6
v 0 2 -4
v 0 4 -6
v 0 4 -4
v -4 2 -4
v -4 2 0
v -4 4 -4
v -4 4 0
v 0 2 -4
v 0 2 0
v 0 4 -4
v 0 4 0
v -4 0 -4
v -4 0 -2
v -4 2 -4
v -4 2 -2
v 0 0 -4
v 0 0 -2
v 0 2 -4
v 0 2 -2
v -4 4 -4
v -4 4 0
v -4 6 -4
v -4 6 0
v 0 4 -4
v 0 4 0
v 0 6 -4
v 0 6 0
v -4 6 -2
v -4 6 0
v -4 8 -2
v -4 8 0
v 0 6 -2
v 0 6 0
v 0 8 -2
v 0 8 0
v -4 6 0
v -4 6 4
v -4 8 0
v -4 8 4
v 0 6 0
v 0 6 4
v 0 8 0
v 0 8 4
v -4 4 0
v -4 4 2
v -4 6 0
v -4 6 2
v 0 4 0
v 0 4 2
v 0 6 0
v 0 6 2
v -4 8 0
v -4 8 4
v -4 10 0
v -4 10 4
v 0 8 0
v 0 8 4
v 0 10 0
v 0 10 4
v -4 10 2
v -4 10 4
v -4 12 2
v -4 12 4
v 0 10 2
v 0 10 4
v 0 12 2
v 0 12 4
v -4 10 4
v -4 10 8
v -4 12 4
v -4 12 8
v 0 10 4
v 0 10 8
v 0 12 4
v 0 12 8
v -4 8 4
v -4 8 6
v -4 10 4
v -4 10 6
v 0 8 4
v 0 8 6
v 0 10 4
v 0 10 6
v -4 12 4
v -4 12 8
v -4 14 4
v -4 14 8
v 0 12 4
v 0 12 8
v 0 14 4
v 0 14 8
v -4 14 6
v -4 14 8
v -4 16 6
v -4 16 8
v 0 14 6
v 0 14 8
v 0 16 6
v 0 16 8
v 0 0 -8
v 0 0 -4
v 0 2 -8
v 0 2 -4
v 4 0 -8
v 4 0 -4
v 4 2 -8
v 4 2 -4
v 0 2 -6
v 0 2 -4
v 0 4 -6
v 0 4 -4
v 4 2 -6
v 4 2 -4
v 4 4 -6
v 4 4 -4
v 0 2 -4
v 0 2 0
v 0 4 -4
v 0 4 0
v 4 2 -4
v 4 2 0
v 4 4 -4
v 4 4 0
v 0 0 -4
v 0 0 -2
v 0 2 -4
v 0 2 -2
v 4 0 -4
v 4 0 -2
v 4 2 -4
v 4 2 -2
v 0 4 -4
v 0 4 0
v 0 6 -4
v 0 6 0
v 4 4 -4
v 4 4 0
v 4 6 -4
v 4 6 0
v 0 6 -2
v 0 6 0
v 0 8 -2
v 0 8 0
v 4 6 -2
v 4 6 0
v 4 8 -2
v 4 8 0
v 0 6 0
v 0 6 4
v 0 8 0
v 0 8 4
v 4 6 0
v 4 6 4
v 4 8 0
v 4 8 4
v 0 4 0
v 0 4 2
v 0 6 0
v 0 6 2
v 4 4 0
v 4 4 2
v 4 6 0
v 4 6 2
v 0 8 0
v 0 8 4
v 0 10 0
v 0 10 4
v 4 8 0
v 4 8 4
v 4 10 0
v 4 10 4
v 0 10 2
v 0 10 4
v 0 12 2
v 0 12 4
v 4 10 2
v 4 10 4
v 4 12 2
v 4 12 4
v 0 10 4
v 0 10 8
v 0 12 4
v 0 12 8
v 4 10 4
v 4 10 8
v 4 12 4
v 4 12 8
v 0 8 4
v 0 8 6
v 0 10 4
v 0 10 6
v 4 8 4
v 4 8 6
v 4 10 4
v 4 10 6
v 0 12 4
v 0 12 8
v 0 14 4
v 0 14 8
v 4 12 4
v 4 12 8
v 4 14 4
v 4 14 8
v 0 14 6
v 0 14 8
v 0 16 6
v 0 16 8
v 4 14 6
v 4 14 8
v 4 16 6
v 4 16 8
v 4 0 -8
v 4 0 -4
v 4 2 -8
v 4 2 -4
v 8 0 -8
v 8 0 -4
v 8 2 -8
v 8 2 -4
v 4 2 -6
v 4 2 -4
v 4 4 -6
v 4 4 -4
v 8 2 -6
v 8 2 -4
v 8 4 -6
v 8 4 -4
v 4 2 -4
v 4 2 0
v 4 4 -4
v 4 4 0
v 8 2 -4
v 8 2 0
v 8 4 -4
v 8 4 0
v 4 0 -4
v 4 0 -2
v 4 2 -4
v 4 2 -2
v 8 0 -4
v 8 0 -2
v 8 2 -4
v 8 2 -2
v 4 4 -4
v 4 4 0
v 4 6 -4
v 4 6 0
v 8 4 -4
v 8 4 0
v 8 6 -4
v 8 6 0
v 4 6 -2
v 4 6 0
v 4 8 -2
v 4 8 0
v 8 6 -2
v 8 6 0
v 8 8 -2
v 8 8 0
v 4 6 0
v 4 6 4
v 4 8 0
v 4 8 4
v 8 6 0
v 8 6 4
v 8 8 0
v 8 8 4
v 4 4 0
v 4 4 2
v 4 6 0
v 4 6 2
v 8 4 0
v 8 4 2
v 8 6 0
v 8 6 2
v 4 8 0
v 4 8 4
v 4 10 0
v 4 10 4
v 8 8 0
v 8 8 4
v 8 10 0
v 8 10 4
v 4 10 2
v 4 10 4
v 4 12 2
v 4 12 4
v 8 10 2
v 8 10 4
v 8 12 2
v 8 12 4
v 4 10 4
v 4 10 8
v 4 12 4
v 4 12 8
v 8 10 4
v 8 10 8
v 8 12 4
v 8 12 8
v 4 8 4
v 4 8 6
v 4 10 4
v 4 10 6
v 8 8 4
v 8 8 6
v 8 10 4
v 8 10 6
v 4 12 4
v 4 12 8
v 4 14 4
v 4 14 8
v 8 12 4
v 8 12 8
v 8 14 4
v 8 14 8
v 4 14 6
v 4 14 8
v 4 16 6
v 4 16 8
v 8 14 6
v 8 14 8
v 8 16 6
v 8 16 8

g Stone_Brick_Stairs
usemtl stone_bricks
f 3/4/1 1/1/1 2/3/1 4/6/1
f 2/7/2 1/1/2 5/3/2 6/9/2
f 7/4/3 5/1/3 1/3/3 3/6/3
f 7/9/5 3/7/5 4/1/5 8/3/5
f 11/8/1 9/5/1 10/6/1 12/9/1
f 15/7/3 13/4/3 9/6/3 11/9/3
f 15/6/5 11/4/5 12/1/5 16/3/5
f 19/7/1 17/4/1 18/6/1 20/9/1
f 18/7/2 17/1/2 21/3/2 22/9/2
f 23/7/3 21/4/3 17/6/3 19/9/3
f 24/9/6 20/7/6 18/4/6 22/6/6
f 27/4/1 25/1/1 26/2/1 28/5/1
f 26/7/2 25/4/2 29/6/2 30/9/2
f 31/4/3 29/1/3 25/3/3 27/6/3
f 32/6/6 28/4/6 26/1/6 30/3/6
f 35/4/1 33/1/1 34/3/1 36/6/1
f 34/7/2 33/1/2 37/3/2 38/9/2
f 39/4/3 37/1/3 33/3/3 35/6/3
f 39/9/5 35/7/5 36/1/5 40/3/5
f 43/8/1 41/5/1 42/6/1 44/9/1
f 47/7/3 45/4/3 41/6/3 43/9/3
f 47/6/5 43/4/5 44/1/5 48/3/5
f 51/7/1 49/4/1 50/6/1 52/9/1
f 50/7/2 49/1/2 53/3/2 54/9/2
f 55/7/3 53/4/3 49/6/3 51/9/3
f 56/9/6 52/7/6 50/4/6 54/6/6
f 59/4/1 57/1/1 58/2/1 60/5/1
f 58/7/2 57/4/2 61/6/2 62/9/2
f 63/4/3 61/1/3 57/3/3 59/6/3
f 64/6/6 60/4/6 58/1/6 62/3/6
f 67/4/1 65/1/1 66/3/1 68/6/1
f 66/7/2 65/1/2 69/3/2 70/9/2
f 71/4/3 69/1/3 65/3/3 67/6/3
f 71/9/5 67/7/5 68/1/5 72/3/5
f 75/8/1 73/5/1 74/6/1 76/9/1
f 79/7/3 77/4/3 73/6/3 75/9/3
f 79/6/5 75/4/5 76/1/5 80/3/5
f 83/7/1 81/4/1 82/6/1 84/9/1
f 82/7/2 81/1/2 85/3/2 86/9/2
f 87/7/3 85/4/3 81/6/3 83/9/3
f 88/9/6 84/7/6 82/4/6 86/6/6
f 91/4/1 89/1/1 90/2/1 92/5/1
f 90/7/2 89/4/2 93/6/2 94/9/2
f 95/4/3 93/1/3 89/3/3 91/6/3
f 96/6/6 92/4/6 90/1/6 94/3/6
f 99/4/1 97/1/1 98/3/1 100/6/1
f 98/7/2 97/1/2 101/3/2 102/9/2
f 103/4/3 101/1/3 97/3/3 99/6/3
f 103/9/5 99/7/5 100/1/5 104/3/5
f 104/6/6 100/4/6 98/1/6 102/3/6
f 107/8/1 105/5/1 106/6/1 108/9/1
f 111/7/3 109/4/3 105/6/3 107/9/3
f 111/6/5 107/4/5 108/1/5 112/3/5
f 112/9/6 108/7/6 106/4/6 110/6/6
f 115/4/1 113/1/1 114/3/1 116/6/1
f 114/7/2 113/1/2 117/3/2 118/9/2
f 119/4/3 117/1/3 113/3/3 115/6/3
f 119/9/5 115/7/5 116/1/5 120/3/5
f 127/7/3 125/4/3 121/6/3 123/9/3
f 127/6/5 123/4/5 124/1/5 128/3/5
f 131/7/1 129/4/1 130/6/1 132/9/1
f 130/7/2 129/1/2 133/3/2 134/9/2
f 135/7/3 133/4/3 129/6/3 131/9/3
f 136/9/6 132/7/6 130/4/6 134/6/6
f 138/7/2 137/4/2 141/6/2 142/9/2
f 143/4/3 141/1/3 137/3/3 139/6/3
f 144/6/6 140/4/6 138/1/6 142/3/6
f 147/4/1 145/1/1 146/3/1 148/6/1
f 146/7/2 145/1/2 149/3/2 150/9/2
f 151/4/3 149/1/3 145/3/3 147/6/3
f 151/9/5 147/7/5 148/1/5 152/3/5
f 159/7/3 157/4/3 153/6/3 155/9/3
f 159/6/5 155/4/5 156/1/5 160/3/5
f 163/7/1 161/4/1 162/6/1 164/9/1
f 162/7/2 161/1/2 165/3/2 166/9/2
f 167/7/3 165/4/3 161/6/3 163/9/3
f 168/9/6 164/7/6 162/4/6 166/6/6
f 170/7/2 169/4/2 173/6/2 174/9/2
f 175/4/3 173/1/3 169/3/3 171/6/3
f 176/6/6 172/4/6 170/1/6 174/3/6
f 179/4/1 177/1/1 178/3/1 180/6/1
f 178/7/2 177/1/2 181/3/2 182/9/2
f 183/4/3 181/1/3 177/3/3 179/6/3
f 183/9/5 179/7/5 180/1/5 184/3/5
f 191/7/3 189/4/3 185/6/3 187/9/3
f 191/6/5 187/4/5 188/1/5 192/3/5
f 195/7/1 193/4/1 194/6/1 196/9/1
f 194/7/2 193/1/2 197/3/2 198/9/2
f 199/7/3 197/4/3 193/6/3 195/9/3
f 200/9/6 196/7/6 194/4/6 198/6/6
f 202/7/2 201/4/2 205/6/2 206/9/2
f 207/4/3 205/1/3 201/3/3 203/6/3
f 208/6/6 204/4/6 202/1/6 206/3/6
f 211/4/1 209/1/1 210/3/1 212/6/1
f 210/7/2 209/1/2 213/3/2 214/9/2
f 215/4/3 213/1/3 209/3/3 211/6/3
f 215/9/5 211/7/5 212/1/5 216/3/5
f 216/6/6 212/4/6 210/1/6 214/3/6
f 223/7/3 221/4/3 217/6/3 219/9/3
f 223/6/5 219/4/5 220/1/5 224/3/5
f 224/9/6 220/7/6 218/4/6 222/6/6
f 227/4/1 225/1/1 226/3/1 228/6/1
f 226/7/2 225/1/2 229/3/2 230/9/2
f 231/4/3 229/1/3 225/3/3 227/6/3
f 231/9/5 227/7/5 228/1/5 232/3/5
f 239/7/3 237/4/3 233/6/3 235/9/3
f 239/6/5 235/4/5 236/1/5 240/3/5
f 243/7/1 241/4/1 242/6/1 244/9/1
f 242/7/2 241/1/2 245/3/2 246/9/2
f 247/7/3 245/4/3 241/6/3 243/9/3
f 248/9/6 244/7/6 242/4/6 246/6/6
f 250/7/2 249/4/2 253/6/2 254/9/2
f 255/4/3 253/1/3 249/3/3 251/6/3
f 256/6/6 252/4/6 250/1/6 254/3/6
f 259/4/1 257/1/1 258/3/1 260/6/1
f 258/7/2 257/1/2 261/3/2 262/9/2
f 263/4/3 261/1/3 257/3/3 259/6/3
f 263/9/5 259/7/5 260/1/5 264/3/5
f 271/7/3 269/4/3 265/6/3 267/9/3
f 271/6/5 267/4/5 268/1/5 272/3/5
f 275/7/1 273/4/1 274/6/1 276/9/1
f 274/7/2 273/1/2 277/3/2 278/9/2
f 279/7/3 277/4/3 273/6/3 275/9/3
f 280/9/6 276/7/6 274/4/6 278/6/6
f 282/7/2 281/4/2 285/6/2 286/9/2
f 287/4/3 285/1/3 281/3/3 283/6/3
f 288/6/6 284/4/6 282/1/6 286/3/6
f 291/4/1 289/1/1 290/3/1 292/6/1
f 290/7/2 289/1/2 293/3/2 294/9/2
f 295/4/3 293/1/3 289/3/3 291/6/3
f 295/9/5 291/7/5 292/1/5 296/3/5
f 303/7/3 301/4/3 297/6/3 299/9/3
f 303/6/5 299/4/5 300/1/5 304/3/5
f 307/7/1 305/4/1 306/6/1 308/9/1
f 306/7/2 305/1/2 309/3/2 310/9/2
f 311/7/3 309/4/3 305/6/3 307/9/3
f 312/9/6 308/7/6 306/4/6 310/6/6
f 314/7/2 313/4/2 317/6/2 318/9/2
f 319/4/3 317/1/3 313/3/3 315/6/3
f 320/6/6 316/4/6 314/1/6 318/3/6
f 323/4/1 321/1/1 322/3/1 324/6/1
f 322/7/2 321/1/2 325/3/2 326/9/2
f 327/4/3 325/1/3 321/3/3 323/6/3
f 327/9/5 323/7/5 324/1/5 328/3/5
f 328/6/6 324/4/6 322/1/6 326/3/6
f 335/7/3 333/4/3 329/6/3 331/9/3
f 335/6/5 331/4/5 332/1/5 336/3/5
f 336/9/6 332/7/6 330/4/6 334/6/6
f 339/4/1 337/1/1 338/3/1 340/6/1
f 338/7/2 337/1/2 341/3/2 342/9/2
f 343/4/3 341/1/3 337/3/3 339/6/3
f 343/6/4 344/4/4 342/1/4 341/3/4
f 343/9/5 339/7/5 340/1/5 344/3/5
f 351/7/3 349/4/3 345/6/3 347/9/3
f 351/8/4 352/7/4 350/4/4 349/5/4
f 351/6/5 347/4/5 348/1/5 352/3/5
f 355/7/1 353/4/1 354/6/1 356/9/1
f 354/7/2 353/1/2 357/3/2 358/9/2
f 359/7/3 357/4/3 353/6/3 355/9/3
f 359/9/4 360/7/4 358/4/4 357/6/4
f 360/9/6 356/7/6 354/4/6 358/6/6
f 362/7/2 361/4/2 365/6/2 366/9/2
f 367/4/3 365/1/3 361/3/3 363/6/3
f 367/6/4 368/5/4 366/2/4 365/3/4
f 368/6/6 364/4/6 362/1/6 366/3/6
f 371/4/1 369/1/1 370/3/1 372/6/1
f 370/7/2 369/1/2 373/3/2 374/9/2
f 375/4/3 373/1/3 369/3/3 371/6/3
f 375/6/4 376/4/4 374/1/4 373/3/4
f 375/9/5 371/7/5 372/1/5 376/3/5
f 383/7/3 381/4/3 377/6/3 379/9/3
f 383/8/4 384/7/4 382/4/4 381/5/4
f 383/6/5 379/4/5 380/1/5 384/3/5
f 387/7/1 385/4/1 386/6/1 388/9/1
f 386/7/2 385/1/2 389/3/2 390/9/2
f 391/7/3 389/4/3 385/6/3 387/9/3
f 391/9/4 392/7/4 390/4/4 389/6/4
f 392/9/6 388/7/6 386/4/6 390/6/6
f 394/7/2 393/4/2 397/6/2 398/9/2
f 399/4/3 397/1/3 393/3/3 395/6/3
f 399/6/4 400/5/4 398/2/4 397/3/4
f 400/6/6 396/4/6 394/1/6 398/3/6
f 403/4/1 401/1/1 402/3/1 404/6/1
f 402/7/2 401/1/2 405/3/2 406/9/2
f 407/4/3 405/1/3 401/3/3 403/6/3
f 407/6/4 408/4/4 406/1/4 405/3/4
f 407/9/5 403/7/5 404/1/5 408/3/5
f 415/7/3 413/4/3 409/6/3 411/9/3
f 415/8/4 416/7/4 414/4/4 413/5/4
f 415/6/5 411/4/5 412/1/5 416/3/5
f 419/7/1 417/4/1 418/6/1 420/9/1
f 418/7/2 417/1/2 421/3/2 422/9/2
f 423/7/3 421/4/3 417/6/3 419/9/3
f 423/9/4 424/7/4 422/4/4 421/6/4
f 424/9/6 420/7/6 418/4/6 422/6/6
f 426/7/2 425/4/2 429/6/2 430/9/2
f 431/4/3 429/1/3 425/3/3 427/6/3
f 431/6/4 432/5/4 430/2/4 429/3/4
f 432/6/6 428/4/6 426/1/6 430/3/6
f 435/4/1 433/1/1 434/3/1 436/6/1
f 434/7/2 433/1/2 437/3/2 438/9/2
f 439/4/3 437/1/3 433/3/3 435/6/3
f 439/6/4 440/4/4 438/1/4 437/3/4
f 439/9/5 435/7/5 436/1/5 440/3/5
f 440/6/6 436/4/6 434/1/6 438/3/6
f 447/7/3 445/4/3 441/6/3 443/9/3
f 447/8/4 448/7/4 446/4/4 445/5/4
f 447/6/5 443/4/5 444/1/5 448/3/5
f 448/9/6 444/7/6 442/4/6 446/6/6
