# Wavefront OBJ file made by Mineways version 11.07, http://mineways.com
# World: Map Art
# Terrain file name: C:\Users\chris\Downloads\mineways\terrainExt.png
# Color scheme: Standard
# Fri Apr 19 09:38:32 2024

# Selection location min to max: -90, -60, 82 to -86, 319, 86
#   Non-empty selection location min to max: -90, -60, 83 to -87, -58, 85

# Set render type: Wavefront OBJ absolute indices
# Units for the model vertex data itself: meters

# 132 vertices, 100 faces (200 triangles), 19 blocks, 9 billboards/bits
# block dimensions: X=5 by Y=4 (height) by Z=4 blocks
# Elevation shading: no
# Lighting: no
# Transparent water: no
# Map grid: no
# File type: Export individual textures to directory tex
# Texture output RGB: YES
# Texture output A: YES
# Texture output RGBA: YES
# Export separate types: YES
# Export individual blocks: no
#   Material per family: YES
#   Split by block type: YES
# Make groups objects: no
# Custom material: YES
# Export lesser blocks: YES
# Fatten lesser blocks: no
# Simplify mesh: no
# Double all billboard faces: no
# Create composite overlay faces: no
# Center model: YES
# Use biomes: no
# Create block faces at the borders: YES
# Tree leaves solid: no
# Rotate model 0.000000 degrees
# Make Z the up direction instead of Y: no
# Scale model by making each block 3500 mm high
# Data operation options:
#   Fill air bubbles: no; Seal off entrances: no; Fill in isolated tunnels in base of model: no
#   Connect parts sharing an edge: no; Connect corner tips: no; Weld all shared edges: no
#   Delete floating objects: trees and parts smaller than 16 blocks: no
#   Hollow out bottom of model, making the walls 1000 mm thick: no; Superhollow: no
# Melt snow blocks: no
#   Debug: show separate parts as colors: no
#   Debug: show weld blocks in bright colors: no

# Full world path: C:\Users\chris\AppData\Roaming\.minecraft\saves\Map Art
# Full terrainExt.png path: C:\Users\chris\Downloads\mineways\terrainExt.png
# Full current path: C:\Users\chris\Downloads\mineways

# COMMON_MC_OBJ_START
# version: 1
# exporter: mineways
# world_name: Map Art
# world_path: C:\Users\chris\AppData\Roaming\.minecraft\saves\Map Art
# export_bounds_min: (-90, -60, 82)
# export_bounds_max: (-86, 319, 86)
# export_offset: (88.000000, 60.000000, -84.000000)
# block_scale: 3.5
# block_origin_offset: (0.000000, 0.000000, 0.000000)
# z_up: false
# texture_type: INDIVIDUAL_TILES
# has_split_blocks: true
# COMMON_MC_OBJ_END

mtllib Tumble_Machine.mtl

o Map_Art__-90_-60_82_to_-86_319_86
vn -1 0 0
vn 0 -1 0
vn 0 0 -1
vn 1 0 0
vn 0 1 0
vn 0 0 1
vn -0.707107 0 -0.707107
vn -0.707107 0 0.707107
vn 0.707107 0 -0.707107
vn 0.707107 0 0.707107
vn -0.707107 -0.707107 0
vn 0 -0.707107 -0.707107
vn 0.707107 -0.707107 0
vn 0 -0.707107 0.707107
vn -0.707107 0.707107 0
vn 0 0.707107 -0.707107
vn 0.707107 0.707107 0
vn 0 0.707107 0.707107
vn -0.92388 0 -0.382683
vn -0.92388 0 0.382683
vn 0.92388 0 -0.382683
vn 0.92388 0 0.382683
vn -0.382683 0 -0.92388
vn -0.382683 0 0.92388
vn 0.382683 0 -0.92388
vn 0.382683 0 0.92388
vn -0.397273 0.9177 0
vn 0.397273 -0.9177 0
vn 0.397273 0.9177 0
vn -0.397273 -0.9177 0
vn 0 0.9177 -0.397273
vn 0 -0.9177 0.397273
vn 0 0.9177 0.397273
vn 0 -0.9177 -0.397273
vn -0.440932 0.897541 0
vn 0.440932 -0.897541 0
vn 0.440932 0.897541 0
vn -0.440932 -0.897541 0
vn 0 0.897541 -0.440932
vn 0 -0.897541 0.440932
vn 0 0.897541 0.440932
vn 0 -0.897541 -0.440932
vt 0.000000000 0.000000000
vt 0.500000000 0.000000000
vt 1.000000000 0.000000000
vt 0.000000000 0.187500000
vt 1.000000000 0.187500000
vt 0.000000000 0.500000000
vt 0.500000000 0.500000000
vt 1.000000000 0.500000000
vt 0.000000000 1.000000000
vt 0.500000000 1.000000000
vt 1.000000000 1.000000000
v -7 3.5 0
v -7 3.5 3.5
v -7 4.15625 0
v -7 4.15625 3.5
v -3.5 3.5 0
v -3.5 3.5 3.5
v -3.5 4.15625 0
v -3.5 4.15625 3.5
v -3.5 7 -3.5
v -3.5 7 0
v -3.5 8.75 -3.5
v -3.5 8.75 0
v 0 7 -3.5
v 0 7 0
v 0 8.75 -3.5
v 0 8.75 0
v -1.75 8.75 -3.5
v -1.75 8.75 0
v -1.75 10.5 -3.5
v -1.75 10.5 0
v 0 8.75 -3.5
v 0 8.75 0
v 0 10.5 -3.5
v 0 10.5 0
v -3.5 7 3.5
v -3.5 7 7
v -3.5 8.75 3.5
v -3.5 8.75 7
v 0 7 3.5
v 0 7 7
v 0 8.75 3.5
v 0 8.75 7
v -1.75 8.75 3.5
v -1.75 8.75 7
v -1.75 10.5 3.5
v -1.75 10.5 7
v 0 8.75 3.5
v 0 8.75 7
v 0 10.5 3.5
v 0 10.5 7
v 3.5 7 -3.5
v 3.5 7 0
v 3.5 8.75 -3.5
v 3.5 8.75 0
v 7 7 -3.5
v 7 7 0
v 7 8.75 -3.5
v 7 8.75 0
v 3.5 8.75 -3.5
v 3.5 8.75 0
v 3.5 10.5 -3.5
v 3.5 10.5 0
v 5.25 8.75 -3.5
v 5.25 8.75 0
v 5.25 10.5 -3.5
v 5.25 10.5 0
v 3.5 7 3.5
v 3.5 7 7
v 3.5 8.75 3.5
v 3.5 8.75 7
v 7 7 3.5
v 7 7 7
v 7 8.75 3.5
v 7 8.75 7
v 3.5 8.75 3.5
v 3.5 8.75 7
v 3.5 10.5 3.5
v 3.5 10.5 7
v 5.25 8.75 3.5
v 5.25 8.75 7
v 5.25 10.5 3.5
v 5.25 10.5 7
v -3.5 0 -3.5
v -3.5 0 0
v -3.5 3.5 0
v -3.5 3.5 -3.5
v 0 0 0
v 0 0 -3.5
v 0 3.5 -3.5
v -3.5 7 0
v -3.5 7 -3.5
v 0 7 -3.5
v 0 3.5 0
v 0 7 0
v -3.5 0 3.5
v -3.5 3.5 3.5
v 0 0 3.5
v 0 3.5 3.5
v -3.5 7 3.5
v -3.5 10.5 3.5
v -3.5 10.5 0
v 0 7 3.5
v 0 10.5 0
v 0 10.5 3.5
v -3.5 0 7
v -3.5 3.5 7
v 0 0 7
v 0 3.5 7
v -3.5 7 7
v 0 7 7
v 3.5 0 0
v 3.5 0 -3.5
v 3.5 3.5 -3.5
v 3.5 3.5 0
v 0 10.5 -3.5
v 3.5 7 0
v 3.5 7 -3.5
v 3.5 10.5 -3.5
v 3.5 10.5 0
v 3.5 0 3.5
v 3.5 3.5 3.5
v 3.5 7 3.5
v 3.5 10.5 3.5
v 3.5 0 7
v 3.5 3.5 7
v 0 10.5 7
v 3.5 7 7
v 3.5 10.5 7
v 7 0 0
v 7 0 -3.5
v 7 3.5 -3.5
v 7 3.5 0
v 7 7 -3.5
v 7 7 0
v 7 0 3.5
v 7 3.5 3.5
v 7 7 3.5
v 7 10.5 0
v 7 10.5 3.5
v 7 0 7
v 7 3.5 7
v 7 7 7

g Block_of_Quartz
usemtl quartz_block_side
f 74/3/1 75/11/1 76/9/1 73/1/1
f 73/3/3 76/11/3 79/9/3 78/1/3
f 75/3/1 80/11/1 81/9/1 76/1/1
f 76/3/3 81/11/3 82/9/3 79/1/3
f 83/1/4 79/3/4 82/11/4 84/9/4
f 75/1/6 83/3/6 84/11/6 80/9/6
f 85/3/1 86/11/1 75/9/1 74/1/1
f 89/3/1 90/11/1 91/9/1 80/1/1
f 80/3/3 91/11/3 93/9/3 84/1/3
f 89/1/6 92/3/6 94/11/6 90/9/6
f 95/3/1 96/11/1 86/9/1 85/1/1
f 95/1/6 97/3/6 98/11/6 96/9/6
f 96/3/1 99/11/1 89/9/1 86/1/1
f 86/3/3 89/11/3 92/9/3 88/1/3
f 98/1/4 88/3/4 92/11/4 100/9/4
f 96/1/6 98/3/6 100/11/6 99/9/6
f 78/3/3 79/11/3 103/9/3 102/1/3
f 84/3/1 93/11/1 105/9/1 82/1/1
f 82/3/3 105/11/3 108/9/3 107/1/3
f 106/1/4 107/3/4 108/11/4 109/9/4
f 88/3/1 92/11/1 84/9/1 83/1/1
f 83/3/3 84/11/3 106/9/3 104/1/3
f 111/1/4 104/3/4 106/11/4 112/9/4
f 88/1/6 111/3/6 112/11/6 92/9/6
f 97/1/6 114/3/6 115/11/6 98/9/6
f 100/3/1 116/11/1 94/9/1 92/1/1
f 117/1/4 112/3/4 113/11/4 118/9/4
f 100/1/6 117/3/6 118/11/6 116/9/6
f 102/3/3 103/11/3 121/9/3 120/1/3
f 119/1/4 120/3/4 121/11/4 122/9/4
f 104/3/1 106/11/1 107/9/1 103/1/1
f 103/3/3 107/11/3 123/9/3 121/1/3
f 122/1/4 121/3/4 123/11/4 124/9/4
f 104/1/6 122/3/6 124/11/6 106/9/6
f 125/1/4 119/3/4 122/11/4 126/9/4
f 106/3/3 109/11/3 128/9/3 124/1/3
f 127/1/4 124/3/4 128/11/4 129/9/4
f 112/1/6 127/3/6 129/11/6 113/9/6
f 130/1/4 125/3/4 126/11/4 131/9/4
f 114/1/6 130/3/6 131/11/6 115/9/6
f 115/3/1 117/11/1 112/9/1 111/1/1
f 111/3/3 112/11/3 127/9/3 126/1/3
f 131/1/4 126/3/4 127/11/4 132/9/4
f 115/1/6 131/3/6 132/11/6 117/9/6

usemtl quartz_block_top
f 74/9/2 73/1/2 78/3/2 77/11/2
f 80/1/5 84/3/5 82/11/5 81/9/5
f 85/9/2 74/1/2 77/3/2 87/11/2
f 86/1/5 88/3/5 83/11/5 75/9/5
f 89/9/2 80/1/2 84/3/2 92/11/2
f 90/1/5 94/3/5 93/11/5 91/9/5
f 95/9/2 85/1/2 87/3/2 97/11/2
f 99/1/5 100/3/5 92/11/5 89/9/5
f 77/9/2 78/1/2 102/3/2 101/11/2
f 83/1/5 104/3/5 103/11/5 79/9/5
f 84/9/2 82/1/2 107/3/2 106/11/2
f 93/1/5 109/3/5 108/11/5 105/9/5
f 87/9/2 77/1/2 101/3/2 110/11/2
f 94/1/5 113/3/5 109/11/5 93/9/5
f 97/9/2 87/1/2 110/3/2 114/11/2
f 98/1/5 115/3/5 111/11/5 88/9/5
f 100/9/2 92/1/2 112/3/2 117/11/2
f 116/1/5 118/3/5 113/11/5 94/9/5
f 101/9/2 102/1/2 120/3/2 119/11/2
f 106/1/5 124/3/5 123/11/5 107/9/5
f 110/9/2 101/1/2 119/3/2 125/11/2
f 111/1/5 126/3/5 122/11/5 104/9/5
f 112/9/2 106/1/2 124/3/2 127/11/2
f 113/1/5 129/3/5 128/11/5 109/9/5
f 114/9/2 110/1/2 125/3/2 130/11/2
f 117/1/5 132/3/5 127/11/5 112/9/5

g Quartz_Stairs
usemtl quartz_block_top
f 11/6/1 9/1/1 10/3/1 12/8/1
f 15/6/3 13/1/3 9/3/3 11/8/3
f 15/11/5 11/9/5 12/1/5 16/3/5
f 19/9/1 17/6/1 18/8/1 20/11/1
f 23/9/3 21/6/3 17/7/3 19/10/3
f 23/11/5 19/10/5 20/2/5 24/3/5
f 27/6/1 25/1/1 26/3/1 28/8/1
f 31/11/5 27/9/5 28/1/5 32/3/5
f 32/8/6 28/6/6 26/1/6 30/3/6
f 35/9/1 33/6/1 34/8/1 36/11/1
f 39/11/5 35/10/5 36/2/5 40/3/5
f 40/11/6 36/10/6 34/7/6 38/8/6
f 47/6/3 45/1/3 41/3/3 43/8/3
f 47/8/4 48/6/4 46/1/4 45/3/4
f 47/11/5 43/9/5 44/1/5 48/3/5
f 55/10/3 53/7/3 49/8/3 51/11/3
f 55/11/4 56/9/4 54/6/4 53/8/4
f 55/10/5 51/9/5 52/1/5 56/2/5
f 63/8/4 64/6/4 62/1/4 61/3/4
f 63/11/5 59/9/5 60/1/5 64/3/5
f 64/8/6 60/6/6 58/1/6 62/3/6
f 71/11/4 72/9/4 70/6/4 69/8/4
f 71/10/5 67/9/5 68/1/5 72/2/5
f 72/10/6 68/9/6 66/6/6 70/7/6

g Iron_Trapdoor
usemtl iron_trapdoor
f 3/4/1 1/1/1 2/3/1 4/5/1
f 2/9/2 1/1/2 5/3/2 6/11/2
f 7/4/3 5/1/3 1/3/3 3/5/3
f 7/5/4 8/4/4 6/1/4 5/3/4
f 7/11/5 3/9/5 4/1/5 8/3/5
f 8/5/6 4/4/6 2/1/6 6/3/6
