# Wavefront OBJ file made by Mineways version 11.07, http://mineways.com
# World: Map Art
# Terrain file name: C:\Users\chris\Downloads\mineways\terrainExt.png
# Color scheme: Standard
# Fri May 17 23:22:10 2024

# Selection location min to max: -46, -60, -77 to -33, 319, -77
#   Non-empty selection location min to max: -46, -60, -77 to -33, -58, -77

# Set render type: Wavefront OBJ absolute indices
# Units for the model vertex data itself: meters

# 120 vertices, 118 faces (236 triangles), 42 blocks, 0 billboards/bits
# block dimensions: X=14 by Y=3 (height) by Z=1 blocks
# Elevation shading: no
# Lighting: no
# Transparent water: no
# Map grid: no
# File type: Export individual textures to directory tex
# Texture output RGB: YES
# Texture output A: YES
# Texture output RGBA: YES
# Export separate types: YES
# Export individual blocks: no
#   Material per family: YES
#   Split by block type: YES
# Make groups objects: no
# Custom material: YES
# Export lesser blocks: YES
# Fatten lesser blocks: no
# Simplify mesh: no
# Double all billboard faces: no
# Create composite overlay faces: no
# Center model: YES
# Use biomes: no
# Create block faces at the borders: YES
# Tree leaves solid: no
# Rotate model 0.000000 degrees
# Make Z the up direction instead of Y: no
# Scale model by making each block 4000 mm high
# Data operation options:
#   Fill air bubbles: no; Seal off entrances: no; Fill in isolated tunnels in base of model: no
#   Connect parts sharing an edge: no; Connect corner tips: no; Weld all shared edges: no
#   Delete floating objects: trees and parts smaller than 16 blocks: no
#   Hollow out bottom of model, making the walls 1000 mm thick: no; Superhollow: no
# Melt snow blocks: no
#   Debug: show separate parts as colors: no
#   Debug: show weld blocks in bright colors: no

# Full world path: C:\Users\chris\AppData\Roaming\.minecraft\saves\Map Art
# Full terrainExt.png path: C:\Users\chris\Downloads\mineways\terrainExt.png
# Full current path: C:\Users\chris\Downloads\mineways

# COMMON_MC_OBJ_START
# version: 1
# exporter: mineways
# world_name: Map Art
# world_path: C:\Users\chris\AppData\Roaming\.minecraft\saves\Map Art
# export_bounds_min: (-46, -60, -77)
# export_bounds_max: (-33, 319, -77)
# export_offset: (39.000000, 60.000000, 77.000000)
# block_scale: 4
# block_origin_offset: (0.000000, 0.000000, 0.000000)
# z_up: false
# texture_type: INDIVIDUAL_TILES
# has_split_blocks: true
# COMMON_MC_OBJ_END

mtllib Wall.mtl

o Map_Art__-46_-60_-77_to_-33_319_-77
vn -1 0 0
vn 0 -1 0
vn 0 0 -1
vn 1 0 0
vn 0 1 0
vn 0 0 1
vn -0.707107 0 -0.707107
vn -0.707107 0 0.707107
vn 0.707107 0 -0.707107
vn 0.707107 0 0.707107
vn -0.707107 -0.707107 0
vn 0 -0.707107 -0.707107
vn 0.707107 -0.707107 0
vn 0 -0.707107 0.707107
vn -0.707107 0.707107 0
vn 0 0.707107 -0.707107
vn 0.707107 0.707107 0
vn 0 0.707107 0.707107
vn -0.92388 0 -0.382683
vn -0.92388 0 0.382683
vn 0.92388 0 -0.382683
vn 0.92388 0 0.382683
vn -0.382683 0 -0.92388
vn -0.382683 0 0.92388
vn 0.382683 0 -0.92388
vn 0.382683 0 0.92388
vn -0.397273 0.9177 0
vn 0.397273 -0.9177 0
vn 0.397273 0.9177 0
vn -0.397273 -0.9177 0
vn 0 0.9177 -0.397273
vn 0 -0.9177 0.397273
vn 0 0.9177 0.397273
vn 0 -0.9177 -0.397273
vn -0.440932 0.897541 0
vn 0.440932 -0.897541 0
vn 0.440932 0.897541 0
vn -0.440932 -0.897541 0
vn 0 0.897541 -0.440932
vn 0 -0.897541 0.440932
vn 0 0.897541 0.440932
vn 0 -0.897541 -0.440932
vt 0.000000000 0.000000000
vt 1.000000000 0.000000000
vt 0.000000000 1.000000000
vt 1.000000000 1.000000000
v -28 0 0
v -28 0 4
v -28 4 4
v -28 4 0
v -24 0 4
v -24 0 0
v -24 4 0
v -24 4 4
v -28 8 4
v -28 8 0
v -24 8 0
v -24 8 4
v -28 12 4
v -28 12 0
v -24 12 0
v -24 12 4
v -20 0 4
v -20 0 0
v -20 4 0
v -20 4 4
v -20 8 0
v -20 8 4
v -20 12 0
v -20 12 4
v -16 0 4
v -16 0 0
v -16 4 0
v -16 4 4
v -16 8 0
v -16 8 4
v -16 12 0
v -16 12 4
v -12 0 4
v -12 0 0
v -12 4 0
v -12 4 4
v -12 8 0
v -12 8 4
v -12 12 0
v -12 12 4
v -8 0 4
v -8 0 0
v -8 4 0
v -8 4 4
v -8 8 0
v -8 8 4
v -8 12 0
v -8 12 4
v -4 0 4
v -4 0 0
v -4 4 0
v -4 4 4
v -4 8 0
v -4 8 4
v -4 12 0
v -4 12 4
v 0 0 4
v 0 0 0
v 0 4 0
v 0 4 4
v 0 8 0
v 0 8 4
v 0 12 0
v 0 12 4
v 4 0 4
v 4 0 0
v 4 4 0
v 4 4 4
v 4 8 0
v 4 8 4
v 4 12 0
v 4 12 4
v 8 0 4
v 8 0 0
v 8 4 0
v 8 4 4
v 8 8 0
v 8 8 4
v 8 12 0
v 8 12 4
v 12 0 4
v 12 0 0
v 12 4 0
v 12 4 4
v 12 8 0
v 12 8 4
v 12 12 0
v 12 12 4
v 16 0 4
v 16 0 0
v 16 4 0
v 16 4 4
v 16 8 0
v 16 8 4
v 16 12 0
v 16 12 4
v 20 0 4
v 20 0 0
v 20 4 0
v 20 4 4
v 20 8 0
v 20 8 4
v 20 12 0
v 20 12 4
v 24 0 4
v 24 0 0
v 24 4 0
v 24 4 4
v 24 8 0
v 24 8 4
v 24 12 0
v 24 12 4
v 28 0 4
v 28 0 0
v 28 4 0
v 28 4 4
v 28 8 0
v 28 8 4
v 28 12 0
v 28 12 4

g Stone_Bricks
usemtl stone_bricks
f 2/2/1 3/4/1 4/3/1 1/1/1
f 2/3/2 1/1/2 6/2/2 5/4/2
f 1/2/3 4/4/3 7/3/3 6/1/3
f 2/1/6 5/2/6 8/4/6 3/3/6
f 3/2/1 9/4/1 10/3/1 4/1/1
f 4/2/3 10/4/3 11/3/3 7/1/3
f 3/1/6 8/2/6 12/4/6 9/3/6
f 9/2/1 13/4/1 14/3/1 10/1/1
f 10/2/3 14/4/3 15/3/3 11/1/3
f 13/1/5 16/2/5 15/4/5 14/3/5
f 9/1/6 12/2/6 16/4/6 13/3/6
f 5/3/2 6/1/2 18/2/2 17/4/2
f 6/2/3 7/4/3 19/3/3 18/1/3
f 5/1/6 17/2/6 20/4/6 8/3/6
f 7/2/3 11/4/3 21/3/3 19/1/3
f 8/1/6 20/2/6 22/4/6 12/3/6
f 11/2/3 15/4/3 23/3/3 21/1/3
f 16/1/5 24/2/5 23/4/5 15/3/5
f 12/1/6 22/2/6 24/4/6 16/3/6
f 17/3/2 18/1/2 26/2/2 25/4/2
f 18/2/3 19/4/3 27/3/3 26/1/3
f 17/1/6 25/2/6 28/4/6 20/3/6
f 19/2/3 21/4/3 29/3/3 27/1/3
f 20/1/6 28/2/6 30/4/6 22/3/6
f 21/2/3 23/4/3 31/3/3 29/1/3
f 24/1/5 32/2/5 31/4/5 23/3/5
f 22/1/6 30/2/6 32/4/6 24/3/6
f 25/3/2 26/1/2 34/2/2 33/4/2
f 26/2/3 27/4/3 35/3/3 34/1/3
f 25/1/6 33/2/6 36/4/6 28/3/6
f 27/2/3 29/4/3 37/3/3 35/1/3
f 28/1/6 36/2/6 38/4/6 30/3/6
f 29/2/3 31/4/3 39/3/3 37/1/3
f 32/1/5 40/2/5 39/4/5 31/3/5
f 30/1/6 38/2/6 40/4/6 32/3/6
f 33/3/2 34/1/2 42/2/2 41/4/2
f 34/2/3 35/4/3 43/3/3 42/1/3
f 33/1/6 41/2/6 44/4/6 36/3/6
f 35/2/3 37/4/3 45/3/3 43/1/3
f 36/1/6 44/2/6 46/4/6 38/3/6
f 37/2/3 39/4/3 47/3/3 45/1/3
f 40/1/5 48/2/5 47/4/5 39/3/5
f 38/1/6 46/2/6 48/4/6 40/3/6
f 41/3/2 42/1/2 50/2/2 49/4/2
f 42/2/3 43/4/3 51/3/3 50/1/3
f 41/1/6 49/2/6 52/4/6 44/3/6
f 43/2/3 45/4/3 53/3/3 51/1/3
f 44/1/6 52/2/6 54/4/6 46/3/6
f 45/2/3 47/4/3 55/3/3 53/1/3
f 48/1/5 56/2/5 55/4/5 47/3/5
f 46/1/6 54/2/6 56/4/6 48/3/6
f 49/3/2 50/1/2 58/2/2 57/4/2
f 50/2/3 51/4/3 59/3/3 58/1/3
f 49/1/6 57/2/6 60/4/6 52/3/6
f 51/2/3 53/4/3 61/3/3 59/1/3
f 52/1/6 60/2/6 62/4/6 54/3/6
f 53/2/3 55/4/3 63/3/3 61/1/3
f 56/1/5 64/2/5 63/4/5 55/3/5
f 54/1/6 62/2/6 64/4/6 56/3/6
f 57/3/2 58/1/2 66/2/2 65/4/2
f 58/2/3 59/4/3 67/3/3 66/1/3
f 57/1/6 65/2/6 68/4/6 60/3/6
f 59/2/3 61/4/3 69/3/3 67/1/3
f 60/1/6 68/2/6 70/4/6 62/3/6
f 61/2/3 63/4/3 71/3/3 69/1/3
f 64/1/5 72/2/5 71/4/5 63/3/5
f 62/1/6 70/2/6 72/4/6 64/3/6
f 65/3/2 66/1/2 74/2/2 73/4/2
f 66/2/3 67/4/3 75/3/3 74/1/3
f 65/1/6 73/2/6 76/4/6 68/3/6
f 67/2/3 69/4/3 77/3/3 75/1/3
f 68/1/6 76/2/6 78/4/6 70/3/6
f 69/2/3 71/4/3 79/3/3 77/1/3
f 72/1/5 80/2/5 79/4/5 71/3/5
f 70/1/6 78/2/6 80/4/6 72/3/6
f 73/3/2 74/1/2 82/2/2 81/4/2
f 74/2/3 75/4/3 83/3/3 82/1/3
f 73/1/6 81/2/6 84/4/6 76/3/6
f 75/2/3 77/4/3 85/3/3 83/1/3
f 76/1/6 84/2/6 86/4/6 78/3/6
f 77/2/3 79/4/3 87/3/3 85/1/3
f 80/1/5 88/2/5 87/4/5 79/3/5
f 78/1/6 86/2/6 88/4/6 80/3/6
f 81/3/2 82/1/2 90/2/2 89/4/2
f 82/2/3 83/4/3 91/3/3 90/1/3
f 81/1/6 89/2/6 92/4/6 84/3/6
f 83/2/3 85/4/3 93/3/3 91/1/3
f 84/1/6 92/2/6 94/4/6 86/3/6
f 85/2/3 87/4/3 95/3/3 93/1/3
f 88/1/5 96/2/5 95/4/5 87/3/5
f 86/1/6 94/2/6 96/4/6 88/3/6
f 89/3/2 90/1/2 98/2/2 97/4/2
f 90/2/3 91/4/3 99/3/3 98/1/3
f 89/1/6 97/2/6 100/4/6 92/3/6
f 91/2/3 93/4/3 101/3/3 99/1/3
f 92/1/6 100/2/6 102/4/6 94/3/6
f 93/2/3 95/4/3 103/3/3 101/1/3
f 96/1/5 104/2/5 103/4/5 95/3/5
f 94/1/6 102/2/6 104/4/6 96/3/6
f 97/3/2 98/1/2 106/2/2 105/4/2
f 98/2/3 99/4/3 107/3/3 106/1/3
f 97/1/6 105/2/6 108/4/6 100/3/6
f 99/2/3 101/4/3 109/3/3 107/1/3
f 100/1/6 108/2/6 110/4/6 102/3/6
f 101/2/3 103/4/3 111/3/3 109/1/3
f 104/1/5 112/2/5 111/4/5 103/3/5
f 102/1/6 110/2/6 112/4/6 104/3/6
f 105/3/2 106/1/2 114/2/2 113/4/2
f 106/2/3 107/4/3 115/3/3 114/1/3
f 113/1/4 114/2/4 115/4/4 116/3/4
f 105/1/6 113/2/6 116/4/6 108/3/6
f 107/2/3 109/4/3 117/3/3 115/1/3
f 116/1/4 115/2/4 117/4/4 118/3/4
f 108/1/6 116/2/6 118/4/6 110/3/6
f 109/2/3 111/4/3 119/3/3 117/1/3
f 118/1/4 117/2/4 119/4/4 120/3/4
f 112/1/5 120/2/5 119/4/5 111/3/5
f 110/1/6 118/2/6 120/4/6 112/3/6
